<svg xmlns="http://www.w3.org/2000/svg" width="70.977" height="71.37" viewBox="0 0 70.977 71.37">
  <g id="logo" transform="translate(-294.508 -1069.395)">
    <circle id="Elipse_2" data-name="Elipse 2" cx="18.513" cy="18.513" r="18.513" transform="translate(311.205 1069.395)" fill="#226966" style="mix-blend-mode: multiply;isolation: isolate"/>
    <path id="Caminho_10" data-name="Caminho 10" d="M364,1130.319l-12.1-12.1-12.107,12.107a17.082,17.082,0,0,0-.666,23.447l12.773,12.773,12.056-12.057.57-.57A17.079,17.079,0,0,0,364,1130.319Z" transform="translate(-21.9 -27.218)" fill="#62549c"/>
    <path id="Caminho_11" data-name="Caminho 11" d="M342.2,1141.359a17.082,17.082,0,0,0-.1-24.051l-17.425-17.425a17.086,17.086,0,0,0-24.164,24.164l15.843,15.843,13.664,13.664,12.081-12.081h0l.107-.107Z" transform="translate(0 -14.207)" fill="none" stroke="#fff" stroke-miterlimit="10" stroke-width="2"/>
    <path id="Caminho_12" data-name="Caminho 12" d="M381.38,1099.895h0a17.087,17.087,0,0,0-24.164,0l-17.425,17.425a17.082,17.082,0,0,0-.1,24.051l-.006.005.108.108h0l12.082,12.082,12.082-12.082,1.582-1.582,15.843-15.843A17.086,17.086,0,0,0,381.38,1099.895Z" transform="translate(-21.9 -14.213)" fill="none" stroke="#fff" stroke-miterlimit="10" stroke-width="2"/>
  </g>
</svg>
