<svg xmlns="http://www.w3.org/2000/svg" width="204.551" height="57.689" viewBox="0 0 204.551 57.689">
  <g id="Grupo_13" data-name="Grupo 13" transform="translate(-803.411 -726.308)">
    <g id="Grupo_2" data-name="Grupo 2" transform="translate(878.408 742.328)">
      <g id="Grupo_1" data-name="Grupo 1" transform="translate(0)">
        <path id="Caminho_1" data-name="Caminho 1" d="M936.944,759.851a.964.964,0,0,0-1.084-.769h-.629V755.2h2.9c1.747,0,2.377.454,2.935,2.026l4.752,13.837a35.087,35.087,0,0,1,.943,3.634h.07a35.121,35.121,0,0,1,.943-3.634l4.752-13.837c.559-1.572,1.153-2.026,2.9-2.026h2.935v3.878H957.7a.964.964,0,0,0-1.083.769l-7.407,20.162h-4.823Z" transform="translate(-935.232 -754.785)" fill="#252734"/>
        <path id="Caminho_2" data-name="Caminho 2" d="M980.263,766.735a.684.684,0,0,0-.768-.769h-1.4v-3.774h4.228c1.643,0,2.341.734,2.341,2.376v10.937a.7.7,0,0,0,.769.769h1.4v3.739H982.6c-1.643,0-2.342-.7-2.342-2.376Zm.21-11.531h3.844v4.088h-3.844Z" transform="translate(-953.71 -754.785)" fill="#252734"/>
        <path id="Caminho_3" data-name="Caminho 3" d="M1005.939,766.75c5.1,0,7.9,3.739,7.9,8.457,0,.524-.1,1.642-.1,1.642h-12.3a5.124,5.124,0,0,0,5.346,4.787,8.1,8.1,0,0,0,5-1.992l1.852,3.075a10.839,10.839,0,0,1-7.163,2.691,9.132,9.132,0,0,1-9.574-9.329C996.889,770.594,1000.593,766.75,1005.939,766.75Zm3.354,7.023a3.46,3.46,0,0,0-3.354-3.6,4.271,4.271,0,0,0-4.368,3.6Z" transform="translate(-961.81 -759.762)" fill="#252734"/>
        <path id="Caminho_4" data-name="Caminho 4" d="M1043.551,754.467c3.18,0,9.4,1.328,9.4,5.556v2.76h-4.158v-1.4c0-1.816-2.97-2.655-5.136-2.655-4.438,0-7.932,3.18-7.932,8.351,0,4.857,3.564,8.771,8.071,8.771a10.583,10.583,0,0,0,7.513-3.285l2.411,3.285a13.747,13.747,0,0,1-9.994,4.263c-7.582,0-12.753-5.7-12.753-13.033A12.321,12.321,0,0,1,1043.551,754.467Z" transform="translate(-976.503 -754.467)" fill="#252734"/>
        <path id="Caminho_5" data-name="Caminho 5" d="M1085.284,773.809h.559v-.14c0-2.551-1.013-3.494-3.284-3.494-.8,0-2.376.21-2.376,1.188v.943h-4.123v-1.887c0-3.32,4.682-3.669,6.534-3.669,5.94,0,7.687,3.11,7.687,7.094v6.639a.7.7,0,0,0,.769.769h1.4v3.739h-3.984c-1.642,0-2.271-.909-2.271-1.957a7.653,7.653,0,0,1,.035-.769h-.069a5.8,5.8,0,0,1-5.382,3.145c-3.18,0-6.08-1.992-6.08-5.556C1074.7,774.263,1082.385,773.809,1085.284,773.809Zm-3.424,8.141c2.376,0,4.054-2.516,4.054-4.682v-.419h-.769c-2.306,0-5.975.315-5.975,2.8C1079.17,780.832,1080.043,781.95,1081.86,781.95Z" transform="translate(-995.351 -759.762)" fill="#252734"/>
        <path id="Caminho_6" data-name="Caminho 6" d="M1110.517,771.845a.684.684,0,0,0-.769-.769h-1.4V767.3h4.053c1.573,0,2.376.664,2.376,2.166v1.049a8.128,8.128,0,0,1-.07,1.118h.07a6.133,6.133,0,0,1,5.661-4.578,5.7,5.7,0,0,1,.8.07v4.368a7.885,7.885,0,0,0-1.083-.07,5.016,5.016,0,0,0-4.857,3.739,10.791,10.791,0,0,0-.385,2.9v7.058h-4.4Z" transform="translate(-1009.858 -759.894)" fill="#252734"/>
        <path id="Caminho_7" data-name="Caminho 7" d="M1142.21,766.75c5.1,0,7.9,3.739,7.9,8.457,0,.524-.1,1.642-.1,1.642h-12.3a5.124,5.124,0,0,0,5.346,4.787,8.1,8.1,0,0,0,5-1.992l1.852,3.075a10.84,10.84,0,0,1-7.163,2.691,9.131,9.131,0,0,1-9.574-9.329C1133.16,770.594,1136.863,766.75,1142.21,766.75Zm3.354,7.023a3.46,3.46,0,0,0-3.354-3.6,4.271,4.271,0,0,0-4.368,3.6Z" transform="translate(-1020.553 -759.762)" fill="#252734"/>
      </g>
    </g>
    <g id="Grupo_3" data-name="Grupo 3" transform="translate(803.411 726.308)">
      <path id="Caminho_8" data-name="Caminho 8" d="M841.917,780.982a14.086,14.086,0,0,0-.084-19.833l-14.369-14.369a14.09,14.09,0,0,0-19.926,19.926L820.6,779.77l11.268,11.268,9.963-9.963h0l.088-.088Z" transform="translate(-803.411 -733.354)" fill="#988dc3"/>
      <path id="Caminho_9" data-name="Caminho 9" d="M867.026,746.786h0a14.09,14.09,0,0,0-19.926,0l-14.37,14.369a14.086,14.086,0,0,0-.084,19.833l0,0,.089.089h0l9.963,9.963,9.963-9.963,1.3-1.3,13.065-13.064A14.091,14.091,0,0,0,867.026,746.786Z" transform="translate(-814.272 -733.357)" fill="#988dc3" style="mix-blend-mode: multiply;isolation: isolate"/>
      <circle id="Elipse_1" data-name="Elipse 1" cx="15.266" cy="15.266" r="15.266" transform="translate(12.944)" fill="#65bbb8" style="mix-blend-mode: multiply;isolation: isolate"/>
    </g>
  </g>
</svg>
