<svg xmlns="http://www.w3.org/2000/svg" width="118" height="118" viewBox="0 0 118 118">
  <g id="icon" transform="translate(-142.607 -714.607)">
    <g id="Elipse_3" data-name="Elipse 3" transform="translate(154.607 726.607)" fill="none" stroke="#75c6c4" stroke-width="1">
      <circle cx="47" cy="47" r="47" stroke="none"/>
      <circle cx="47" cy="47" r="46.5" fill="none"/>
    </g>
    <circle id="Elipse_4" data-name="Elipse 4" cx="40" cy="40" r="40" transform="translate(161.607 733.607)" fill="#b1f0ef"/>
    <g id="doctor" transform="translate(180.996 749.594)">
      <g id="Grupo_6" data-name="Grupo 6" transform="translate(18.629 1.784)">
        <g id="Grupo_5" data-name="Grupo 5" transform="translate(0)">
          <path id="Caminho_23" data-name="Caminho 23" d="M238.528,20.261h-.534v-.534a.7.7,0,0,0-1.4,0v.534h-.534a.7.7,0,1,0,0,1.4h.534V22.2a.7.7,0,0,0,1.4,0v-.534h.534a.7.7,0,0,0,0-1.4Z" transform="translate(-235.357 -19.026)" fill="#75c6c4" stroke="#ae9fcd" stroke-width="0.3"/>
        </g>
      </g>
      <g id="Grupo_8" data-name="Grupo 8" transform="translate(0 0)">
        <g id="Grupo_7" data-name="Grupo 7" transform="translate(0 0)">
          <path id="Caminho_24" data-name="Caminho 24" d="M77.836,45.621l-2.049-12A3.438,3.438,0,0,0,73.377,30.9l-9.2-2.776A1.528,1.528,0,0,0,63,28.243a1.774,1.774,0,0,1-.565-1.25V24.7l.071-.061.112-.1h.9a4.48,4.48,0,0,0,4.472-4.763l-.25-3.945V15.77a2.114,2.114,0,0,0-.024-.317l-.28-4.418a.7.7,0,1,0-1.4.089l.165,2.614a2.108,2.108,0,0,0-.575-.08H65.59a1.268,1.268,0,0,0-.95-.565c-7.279-.655-9.374-2.829-10.9-4.416-.318-.33-.84-.355-1.55-.075a5.42,5.42,0,0,0-3.384,4.87s0,.008,0,.012v.181a2.1,2.1,0,0,0-.405.073l.216-3.417A5.891,5.891,0,0,1,51.1,5.853l.053.139A2.407,2.407,0,0,0,53.39,7.529h8a2.407,2.407,0,0,0,2.235-1.538l.012-.032a5.912,5.912,0,0,1,1.78,2.177.7.7,0,0,0,1.265-.606,7.308,7.308,0,0,0-2.527-2.924l.483-1.262A1.743,1.743,0,0,0,63.36,1.013L59.336.2a9.711,9.711,0,0,0-3.888,0l-4.024.817a1.743,1.743,0,0,0-1.281,2.332l.446,1.165a7.283,7.283,0,0,0-3.375,5.723l-.332,5.249a2.108,2.108,0,0,0-.022.289v.059l-.25,3.945a4.48,4.48,0,0,0,4.472,4.763h.9l.112.1.071.061v2.3a1.774,1.774,0,0,1-.565,1.25,1.528,1.528,0,0,0-1.176-.122l-9.2,2.776a3.438,3.438,0,0,0-2.409,2.728l-.77,4.507a.7.7,0,1,0,1.382.236l.77-4.507a2.043,2.043,0,0,1,1.432-1.621l9.2-2.776a.129.129,0,0,1,.153.065h0l4.392,8.677a2.159,2.159,0,0,0,3.855,0l4.392-8.677a.129.129,0,0,1,.153-.065l9.2,2.776A2.043,2.043,0,0,1,74.4,33.86l2.049,12a.651.651,0,0,1-.641.76H71.468l-1.146-6.709a.7.7,0,0,0-1.382.236l1.106,6.473H44.555l1.106-6.473a.7.7,0,0,0-1.382-.236l-1.146,6.709H38.789a.651.651,0,0,1-.641-.76l.713-4.176a.7.7,0,0,0-1.382-.236l-.713,4.176a2.053,2.053,0,0,0,2.024,2.4H75.812a2.053,2.053,0,0,0,2.024-2.4ZM51.472,2.558a.337.337,0,0,1,.231-.17l4.024-.817a8.324,8.324,0,0,1,3.329,0l4.024.817h0a.341.341,0,0,1,.251.456L62.319,5.49a1,1,0,0,1-.925.637h-8a1,1,0,0,1-.925-.637L51.452,2.844A.337.337,0,0,1,51.472,2.558Zm15.12,17.305A3.08,3.08,0,0,1,64,23.1a7.8,7.8,0,0,0,1.742-3.655,2.094,2.094,0,0,0,.814-.211Zm-17.756,2.3a3.048,3.048,0,0,1-.828-2.3l.04-.63a2.1,2.1,0,0,0,.814.211A7.8,7.8,0,0,0,50.6,23.1,3.044,3.044,0,0,1,48.836,22.164ZM58.065,37.4l-.088.174a.8.8,0,0,1-.042.07c0,.007-.008.015-.013.022s-.019.024-.029.036a.752.752,0,0,1-.111.117l-.027.02a.759.759,0,0,1-1.13-.265L53.712,31.82h7.177ZM61.6,30.417H53l-.542-1.07a3.166,3.166,0,0,0,1.106-2.354v-1.21a6.71,6.71,0,0,0,3.726,1.067h.016a6.711,6.711,0,0,0,3.726-1.067v1.21a3.165,3.165,0,0,0,1.106,2.354Zm-.006-6.845a5.851,5.851,0,0,1-8.584,0,7.187,7.187,0,0,1-2.8-4.842.7.7,0,0,0-.7-.686h-.534a.711.711,0,0,1-.71-.71V15.77a.708.708,0,0,1,.007-.1c0-.011,0-.021,0-.032a.711.711,0,0,1,.7-.582H49.5a.7.7,0,0,0,.7-.7v-.87a4.009,4.009,0,0,1,2.7-3.655c2.056,2.1,4.584,4.005,11.5,4.645a.7.7,0,0,0,.691.58h.532a.711.711,0,0,1,.7.582c0,.011,0,.022,0,.032a.708.708,0,0,1,.007.1v1.564a.711.711,0,0,1-.71.71H65.1a.7.7,0,0,0-.7.686A7.189,7.189,0,0,1,61.593,23.573Z" transform="translate(-36.736 0)" fill="#75c6c4" stroke="#ae9fcd" stroke-width="0.3"/>
        </g>
      </g>
    </g>
    <g id="Elipse_10" data-name="Elipse 10" transform="translate(142.607 714.607)" fill="none" stroke="#b2edec" stroke-width="1">
      <circle cx="59" cy="59" r="59" stroke="none"/>
      <circle cx="59" cy="59" r="58.5" fill="none"/>
    </g>
  </g>
</svg>
