<svg xmlns="http://www.w3.org/2000/svg" width="118" height="118" viewBox="0 0 118 118">
  <g id="icon" transform="translate(-140 -712)">
    <g id="Elipse_3" data-name="Elipse 3" transform="translate(152 724)" fill="none" stroke="#75c6c4" stroke-width="1">
      <circle cx="47" cy="47" r="47" stroke="none"/>
      <circle cx="47" cy="47" r="46.5" fill="none"/>
    </g>
    <circle id="Elipse_4" data-name="Elipse 4" cx="40" cy="40" r="40" transform="translate(159 731)" fill="#b1f0ef"/>
    <g id="_023---Laser-Cutting" data-name="023---Laser-Cutting" transform="translate(174.854 746.854)">
      <path id="Shape" d="M47.929,29.3a11.138,11.138,0,0,1-5.058-12.193.805.805,0,0,0-.991-.991A11.066,11.066,0,0,1,31.927,13.7a.808.808,0,1,0-1.063,1.216,12.685,12.685,0,0,0,10.212,3,12.749,12.749,0,0,0,4.993,12.081,12.765,12.765,0,0,0-4.993,12.081A12.749,12.749,0,0,0,29,47.067a12.741,12.741,0,0,0-12.081-4.993,12.588,12.588,0,0,0-4.993-12.081,12.741,12.741,0,0,0,5.114-10.816l6.322,6.3a7.248,7.248,0,1,0,8.376-2.207.809.809,0,0,0-.612,1.5,5.638,5.638,0,1,1-6.62,1.86l3.938,3.938a.8.8,0,0,0,1.128-1.144l-3.938-3.938a5.637,5.637,0,0,1,1.256-.717.809.809,0,1,0-.612-1.5,7.6,7.6,0,0,0-1.8,1.087l-6.29-6.3a12.612,12.612,0,0,0,8.932-3.085.808.808,0,0,0-1.063-1.216,11.026,11.026,0,0,1-9.753,2.416l-1.852-1.86a10.236,10.236,0,0,0,2.1-3.745c.467-1.611.338-2.923-.362-3.624-1.981-1.989-3.721-3.737-5.71-5.71A.806.806,0,1,0,9.336,2.377l2.279,2.279c.137.137.306.805-.048,2.03a9.157,9.157,0,0,1-5.9,5.9c-1.216.354-1.893.185-2.03.048L1.379,10.35A.8.8,0,0,0,.235,11.47l5.694,5.694a2.593,2.593,0,0,0,1.885.636A9.109,9.109,0,0,0,13.3,15.424l1.86,1.852a11.1,11.1,0,0,1-5.1,12.008.805.805,0,0,0,0,1.385,11.009,11.009,0,0,1,5.058,12.209.805.805,0,0,0,.991.991,11.122,11.122,0,0,1,12.209,5.058.805.805,0,0,0,1.385,0A11.138,11.138,0,0,1,41.881,43.87a.805.805,0,0,0,.991-.991A11.122,11.122,0,0,1,47.929,30.67a.805.805,0,0,0,0-1.369ZM9.1,16c-1.216.354-1.893.185-2.03.048L5.341,14.313a10.51,10.51,0,0,0,7.973-7.973l1.732,1.732c.137.137.306.805-.048,2.03A9.125,9.125,0,0,1,9.1,16Z" transform="translate(-0.009 -0.999)" fill="#75c6c4"/>
      <path id="Shape-2" data-name="Shape" d="M36.7,1.848a.848.848,0,0,0-1.7,0v1.7a.848.848,0,0,0,1.7,0Z" transform="translate(-6.871 -0.999)" fill="#75c6c4"/>
      <path id="Shape-3" data-name="Shape" d="M36.7,7.848a.848.848,0,1,0-1.7,0v1.7a.848.848,0,1,0,1.7,0Z" transform="translate(-6.871 -1.91)" fill="#75c6c4"/>
      <path id="Shape-4" data-name="Shape" d="M36.7,13.848a.848.848,0,1,0-1.7,0v1.7a.848.848,0,0,0,1.7,0Z" transform="translate(-6.871 -3.372)" fill="#75c6c4"/>
      <path id="Shape-5" data-name="Shape" d="M36.7,19.848a.848.848,0,0,0-1.7,0v1.7a.848.848,0,0,0,1.7,0Z" transform="translate(-6.871 -4.558)" fill="#75c6c4"/>
      <path id="Shape-6" data-name="Shape" d="M35.848,25a.848.848,0,0,0-.848.848v1.7a.848.848,0,1,0,1.7,0v-1.7A.848.848,0,0,0,35.848,25Z" transform="translate(-6.871 -5.744)" fill="#75c6c4"/>
    </g>
    <g id="Elipse_9" data-name="Elipse 9" transform="translate(140 712)" fill="none" stroke="#b2edec" stroke-width="1">
      <circle cx="59" cy="59" r="59" stroke="none"/>
      <circle cx="59" cy="59" r="58.5" fill="none"/>
    </g>
  </g>
</svg>
