<svg xmlns="http://www.w3.org/2000/svg" width="118" height="118" viewBox="0 0 118 118">
  <g id="icon" transform="translate(-142.719 -714.719)">
    <g id="Elipse_3" data-name="Elipse 3" transform="translate(154.719 726.719)" fill="none" stroke="#75c6c4" stroke-width="1">
      <circle cx="47" cy="47" r="47" stroke="none"/>
      <circle cx="47" cy="47" r="46.5" fill="none"/>
    </g>
    <circle id="Elipse_4" data-name="Elipse 4" cx="40" cy="40" r="40" transform="translate(161.719 733.719)" fill="#b1f0ef"/>
    <g id="foot" transform="translate(177.652 749.651)">
      <path id="Caminho_18" data-name="Caminho 18" d="M8.112,12.291,5.049,20.87a4,4,0,0,0-.234,1.349V34.354L.052,47.054A.8.8,0,0,0,.8,48.138H12.837a.8.8,0,0,0,.778-.608l1.824-7.3v.005a8.643,8.643,0,0,0,17.227-.045l0-.061,1.851,7.4a.8.8,0,0,0,.778.608H47.335a.8.8,0,0,0,.751-1.084l-4.763-12.7V22.219a4,4,0,0,0-.234-1.349l-3.063-8.578a4.019,4.019,0,0,0-3.778-2.663H35.108L35.3,7.222V3.211A3.208,3.208,0,0,0,29.8.969,2.8,2.8,0,0,0,25.843.687q-.088.076-.169.159A2.807,2.807,0,0,0,21,1.947a2.807,2.807,0,0,0-4.011,1.6,2.807,2.807,0,0,0-4.147,2.467l0,3.61h-.95a4.019,4.019,0,0,0-3.778,2.662ZM34.98,11.234h1.268a2.413,2.413,0,0,1,2.267,1.6l3.063,8.579a2.4,2.4,0,0,1,.14.809V34.5a.8.8,0,0,0,.051.282l4.407,11.752H35.927l-3.078-12.3L28.176,20.995a1.674,1.674,0,0,1-.1-.559v-.305a1.677,1.677,0,0,1,3.177-.75l4.93,9.861,1.435-.718-3.47-6.94ZM14.442,6.019a1.2,1.2,0,0,1,2.407,0V8.025h1.6V4.415a1.2,1.2,0,1,1,2.407,0V7.222h1.6V2.81a1.2,1.2,0,0,1,2.407,0V6.42h1.6V2.81a1.2,1.2,0,0,1,2.407,0V6.42h1.6V3.211a1.6,1.6,0,0,1,3.209,0l0,3.947-.933,11.651-.073-.146a3.282,3.282,0,0,0-6.217,1.468v.305a3.285,3.285,0,0,0,.186,1.092l4.651,13.166.137.547-.383,4.817a7.038,7.038,0,0,1-14.029.037l-.4-4.674.163-.654,4.673-13.239a3.277,3.277,0,0,0,.186-1.091v-.305a3.282,3.282,0,0,0-6.217-1.468l-.2.4-.8-9.432Zm-.571,15.793-3.356,6.713,1.435.718,4.93-9.861a1.677,1.677,0,0,1,3.177.75v.305a1.667,1.667,0,0,1-.1.558L15.268,34.3,12.21,46.533H1.961L6.368,34.781a.8.8,0,0,0,.051-.282V22.219a2.4,2.4,0,0,1,.14-.809l3.063-8.579a2.414,2.414,0,0,1,2.267-1.6h1.081Z" transform="translate(-0.001 -0.002)" fill="#75c6c4"/>
      <path id="Caminho_19" data-name="Caminho 19" d="M179.377,139.236l.085.213,1.49-.6-.085-.213a5.719,5.719,0,0,0-6.433-3.484l.315,1.573A4.115,4.115,0,0,1,179.377,139.236Z" transform="translate(-156.941 -121.501)" fill="#75c6c4"/>
      <path id="Caminho_20" data-name="Caminho 20" d="M230.786,206.5a7.2,7.2,0,0,0,2.728,7.139l.962-1.284a5.59,5.59,0,0,1-2.117-5.54l.016-.078-1.573-.316Z" transform="translate(-207.52 -185.723)" fill="#75c6c4"/>
    </g>
    <g id="Elipse_11" data-name="Elipse 11" transform="translate(142.719 714.719)" fill="none" stroke="#b2edec" stroke-width="1">
      <circle cx="59" cy="59" r="59" stroke="none"/>
      <circle cx="59" cy="59" r="58.5" fill="none"/>
    </g>
  </g>
</svg>
